<svg version="1.1" id="svg1" width="150" height="370" viewBox="0 0 150 350" xmlns:inkscape="http://www.inkscape.org/namespaces/inkscape" xmlns:sodipodi="http://sodipodi.sourceforge.net/DTD/sodipodi-0.dtd" xmlns="http://www.w3.org/2000/svg" xmlns:svg="http://www.w3.org/2000/svg" xmlns:bx="https://boxy-svg.com">
  <defs id="defs1">
    <clipPath clipPathUnits="userSpaceOnUse" id="clipPath99">
      <path d="M -59.627 266.306 L 606.958 266.306 L 606.958 -400.34 L -59.627 -400.34 L -59.627 266.306 Z" id="path99" style="stroke-width: 1.333;"></path>
    </clipPath>
    <clipPath clipPathUnits="userSpaceOnUse" id="clipPath101">
      <path d="M -59.647 602.549 L 607.021 602.549 L 607.021 -64.118 L -59.647 -64.118 L -59.647 602.549 Z" id="path101" style="stroke-width: 1.333;"></path>
    </clipPath>
    <clipPath clipPathUnits="userSpaceOnUse" id="clipPath103">
      <path d="M -59.65 444.896 L 607.028 444.896 L 607.028 -221.77 L -59.65 -221.77 L -59.65 444.896 Z" id="path103" style="stroke-width: 1.333;"></path>
    </clipPath>
    <clipPath clipPathUnits="userSpaceOnUse" id="clipPath105">
      <path d="M -59.642 390.313 L 607.005 390.313 L 607.005 -276.35 L -59.642 -276.35 L -59.642 390.313 Z" id="path105" style="stroke-width: 1.333;"></path>
    </clipPath>
    <clipPath clipPathUnits="userSpaceOnUse" id="clipPath107">
      <path d="M -59.645 478.51 L 607.011 478.51 L 607.011 -188.16 L -59.645 -188.16 L -59.645 478.51 Z" id="path107" style="stroke-width: 1.333;"></path>
    </clipPath>
    <clipPath clipPathUnits="userSpaceOnUse" id="clipPath109">
      <path d="M -59.647 550.089 L 607.02 550.089 L 607.02 -116.59 L -59.647 -116.59 L -59.647 550.089 Z" id="path109" style="stroke-width: 1.333;"></path>
    </clipPath>
    <clipPath clipPathUnits="userSpaceOnUse" id="clipPath111">
      <path d="M -59.641 591.984 L 607.006 591.984 L 607.006 -74.659 L -59.641 -74.659 L -59.641 591.984 Z" id="path111" style="stroke-width: 1.333;"></path>
    </clipPath>
    <clipPath clipPathUnits="userSpaceOnUse" id="clipPath113">
      <path d="M -59.649 689.633 L 607.028 689.633 L 607.028 22.948 L -59.649 22.948 L -59.649 689.633 Z" id="path113" style="stroke-width: 1.333;"></path>
    </clipPath>
    <clipPath clipPathUnits="userSpaceOnUse" id="clipPath115">
      <path d="M -59.645 770.593 L 607.011 770.593 L 607.011 103.9 L -59.645 103.9 L -59.645 770.593 Z" id="path115" style="stroke-width: 1.333;"></path>
    </clipPath>
    <clipPath clipPathUnits="userSpaceOnUse" id="clipPath117">
      <path d="M -59.641 871.432 L 606.999 871.432 L 606.999 204.763 L -59.641 204.763 L -59.641 871.432 Z" id="path117" style="stroke-width: 1.333;"></path>
    </clipPath>
    <clipPath clipPathUnits="userSpaceOnUse" id="clipPath119">
      <path d="M -59.65 526.484 L 607.04 526.484 L 607.04 -140.18 L -59.65 -140.18 L -59.65 526.484 Z" id="path119" style="stroke-width: 1.333;"></path>
    </clipPath>
    <clipPath clipPathUnits="userSpaceOnUse" id="clipPath121">
      <path d="M -59.647 451.905 L 607.019 451.905 L 607.019 -214.76 L -59.647 -214.76 L -59.647 451.905 Z" id="path121" style="stroke-width: 1.333;"></path>
    </clipPath>
    <clipPath clipPathUnits="userSpaceOnUse" id="clipPath123">
      <path d="M -59.647 572.263 L 607.02 572.263 L 607.02 -94.367 L -59.647 -94.367 L -59.647 572.263 Z" id="path123" style="stroke-width: 1.333;"></path>
    </clipPath>
    <clipPath clipPathUnits="userSpaceOnUse" id="clipPath125">
      <path d="M -59.641 641.743 L 607.002 641.743 L 607.002 -24.913 L -59.641 -24.913 L -59.641 641.743 Z" id="path125" style="stroke-width: 1.333;"></path>
    </clipPath>
    <clipPath clipPathUnits="userSpaceOnUse" id="clipPath127">
      <path d="M -59.643 672.094 L 606.999 672.094 L 606.999 5.441 L -59.643 5.441 L -59.643 672.094 Z" id="path127" style="stroke-width: 1.333;"></path>
    </clipPath>
    <clipPath clipPathUnits="userSpaceOnUse" id="clipPath129">
      <path d="M -59.647 759.869 L 607.019 759.869 L 607.019 93.181 L -59.647 93.181 L -59.647 759.869 Z" id="path129" style="stroke-width: 1.333;"></path>
    </clipPath>
    <clipPath clipPathUnits="userSpaceOnUse" id="clipPath131">
      <path d="M -59.652 820.731 L 607.038 820.731 L 607.038 154.055 L -59.652 154.055 L -59.652 820.731 Z" id="path131" style="stroke-width: 1.333;"></path>
    </clipPath>
    <clipPath clipPathUnits="userSpaceOnUse" id="clipPath133">
      <path d="M -59.659 321.991 L 607.055 321.991 L 607.055 -344.58 L -59.659 -344.58 L -59.659 321.991 Z" id="path133" style="stroke-width: 1.333;"></path>
    </clipPath>
    <clipPath clipPathUnits="userSpaceOnUse" id="clipPath135">
      <path d="M -59.648 323.207 L 607.026 323.207 L 607.026 -343.43 L -59.648 -343.43 L -59.648 323.207 Z" id="path135" style="stroke-width: 1.333;"></path>
    </clipPath>
    <clipPath clipPathUnits="userSpaceOnUse" id="clipPath137">
      <path d="M -59.659 321.991 L 607.055 321.991 L 607.055 -344.58 L -59.659 -344.58 L -59.659 321.991 Z" id="path137" style="stroke-width: 1.333;"></path>
    </clipPath>
    <clipPath clipPathUnits="userSpaceOnUse" id="clipPath139">
      <path d="M -59.63 323.207 L 606.973 323.207 L 606.973 -343.43 L -59.63 -343.43 L -59.63 323.207 Z" id="path139" style="stroke-width: 1.333;"></path>
    </clipPath>
    <bx:export>
      <bx:file format="svg"></bx:file>
    </bx:export>
  </defs>
  <path id="path98" d="M 108.215 26.82 L 106.659 26.82 L 106.159 3.154 L 107.576 6.931 L 108.868 3.154 L 108.215 26.82 Z" style="fill: rgb(228, 137, 92); fill-opacity: 1; fill-rule: nonzero; stroke: none; stroke-width: 1.333;" clip-path="url(#clipPath99)"></path>
  <path id="path100" d="M 91.825 346.099 C 87.598 346.092 85.956 322.485 85.597 319.587 C 84.336 309.415 85.825 295.425 75.902 289.38 C 69.718 285.612 63.017 286.685 56.244 285.471 C 50.362 284.415 44.741 282.023 39.9 278.523 C 30.302 271.584 24.197 260.479 23.844 248.604 C 23.193 226.751 40.782 208.765 62.493 208.765 L 97.99 208.765 C 107.312 208.765 115.345 201.617 115.804 192.305 C 116.296 182.353 108.34 174.099 98.493 174.099 L 39.258 174.099 C 19.67 174.099 3.09 158.769 2.509 139.188 C 1.905 118.844 18.28 102.099 38.493 102.099 L 83.825 102.099 C 95.118 102.099 98.072 94.009 98.96 84.929 C 99.81 76.236 98.846 67.459 96.429 59.064 L 94.913 53.8 C 92.025 43.769 93.964 32.836 100.548 24.736 C 102.697 22.091 104.977 20.252 107.028 20.12 C 109.524 19.959 112.352 22.007 114.956 25.02 C 121.578 32.687 123.644 43.296 120.881 53.043 L 119.766 56.975 C 117.32 65.605 116.913 74.687 118.58 83.503 C 121.452 98.697 114.574 114.372 100.986 121.753 C 95.885 124.524 90.04 126.099 83.826 126.099 L 38.916 126.099 C 32.53 126.099 26.946 130.905 26.52 137.279 C 26.053 144.265 31.604 150.099 38.493 150.099 L 97.613 150.099 C 120.105 150.099 139.14 167.7 139.808 190.181 C 140.5 213.541 121.7 232.765 98.493 232.765 L 63.22 232.765 C 58.048 232.765 53.066 235.187 50.214 239.501 C 44.321 248.421 50.077 260.065 59.6 261.816 C 67.996 263.36 74.872 262.296 82.589 267.005 C 98.756 276.865 100.777 294.748 99.028 311.856 C 98.634 315.7 97.033 346.099 91.825 346.099" style="fill: rgb(240, 199, 91); fill-opacity: 1; fill-rule: nonzero; stroke: none; stroke-width: 1.333;" clip-path="url(#clipPath101)"></path>
  <path id="path102" d="M 94.16 114.348 C 99.821 114.348 104.409 109.76 104.409 104.099 C 104.409 99.358 101.188 95.38 96.816 94.208 C 94.785 98.806 91.049 101.996 84.109 102.086 C 83.98 102.736 83.91 103.41 83.91 104.099 C 83.91 109.76 88.498 114.348 94.16 114.348" style="fill: rgb(228, 137, 92); fill-opacity: 1; fill-rule: nonzero; stroke: none; stroke-width: 1.333;" clip-path="url(#clipPath103)"></path>
  <path id="path104" d="M 117.715 87.237 C 118.172 87.237 118.619 87.197 119.059 87.138 C 118.954 85.926 118.808 84.713 118.579 83.502 C 117.532 77.962 117.307 72.318 117.888 66.746 C 117.83 66.745 117.774 66.737 117.715 66.737 C 112.054 66.737 107.466 71.326 107.466 76.988 C 107.466 82.648 112.054 87.237 117.715 87.237" style="fill: rgb(228, 137, 92); fill-opacity: 1; fill-rule: nonzero; stroke: none; stroke-width: 1.333;" clip-path="url(#clipPath105)"></path>
  <path id="path106" d="M 59.048 116.071 C 53.463 116.071 48.93 120.542 48.81 126.099 L 69.287 126.099 C 69.167 120.542 64.634 116.071 59.048 116.071" style="fill: rgb(228, 137, 92); fill-opacity: 1; fill-rule: nonzero; stroke: none; stroke-width: 1.333;" clip-path="url(#clipPath107)"></path>
  <path id="path108" d="M 105.303 150.804 C 102.802 150.346 100.232 150.099 97.614 150.099 L 85.696 150.099 C 85.344 151.134 85.146 152.238 85.146 153.391 C 85.146 159.054 89.735 163.642 95.395 163.642 C 101.056 163.642 105.646 159.054 105.646 153.391 C 105.646 152.496 105.519 151.632 105.303 150.804" style="fill: rgb(228, 137, 92); fill-opacity: 1; fill-rule: nonzero; stroke: none; stroke-width: 1.333;" clip-path="url(#clipPath109)"></path>
  <path id="path110" d="M 132.647 168.423 C 129.862 170.255 128.021 173.404 128.021 176.988 C 128.021 182.648 132.61 187.237 138.27 187.237 C 138.719 187.237 139.157 187.199 139.59 187.143 C 138.865 180.232 136.399 173.863 132.647 168.423" style="fill: rgb(228, 137, 92); fill-opacity: 1; fill-rule: nonzero; stroke: none; stroke-width: 1.333;" clip-path="url(#clipPath111)"></path>
  <path id="path112" d="M 90.27 220.515 C 84.609 220.515 80.021 225.103 80.021 230.764 C 80.021 231.45 80.09 232.118 80.218 232.766 L 98.493 232.766 C 99.109 232.766 99.72 232.744 100.329 232.718 C 100.452 232.086 100.52 231.432 100.52 230.764 C 100.52 225.103 95.932 220.515 90.27 220.515" style="fill: rgb(228, 137, 92); fill-opacity: 1; fill-rule: nonzero; stroke: none; stroke-width: 1.333;" clip-path="url(#clipPath113)"></path>
  <path id="path114" d="M 80.931 266.08 C 74.412 262.722 68.383 263.148 61.366 262.107 C 61.49 267.623 66.058 272.126 71.603 272.126 C 75.731 272.126 79.314 269.63 80.931 266.08" style="fill: rgb(228, 137, 92); fill-opacity: 1; fill-rule: nonzero; stroke: none; stroke-width: 1.333;" clip-path="url(#clipPath115)"></path>
  <path id="path116" d="M 92.885 321.997 C 93.882 324.268 95.604 325.996 97.658 327.029 C 98.465 320.081 98.858 313.51 99.028 311.857 C 99.157 310.594 99.262 309.328 99.346 308.061 C 98.944 308.181 98.545 308.317 98.15 308.49 C 92.966 310.766 90.609 316.813 92.885 321.997" style="fill: rgb(228, 137, 92); fill-opacity: 1; fill-rule: nonzero; stroke: none; stroke-width: 1.333;" clip-path="url(#clipPath117)"></path>
  <path id="path118" d="M 38.494 150.098 C 31.604 150.098 26.052 144.265 26.52 137.278 C 26.572 136.5 26.704 135.744 26.902 135.018 C 22.596 136.233 19.436 140.182 19.436 144.876 C 19.436 150.537 24.024 155.126 29.686 155.126 C 33.436 155.126 36.707 153.105 38.494 150.098" style="fill: rgb(228, 137, 92); fill-opacity: 1; fill-rule: nonzero; stroke: none; stroke-width: 1.333;" clip-path="url(#clipPath119)"></path>
  <path id="path120" d="M 27.937 113.459 C 33.598 113.459 38.186 108.871 38.186 103.21 C 38.186 102.836 38.165 102.47 38.126 102.107 C 31.024 102.179 24.412 104.32 18.854 107.951 C 20.568 111.223 23.989 113.459 27.937 113.459" style="fill: rgb(228, 137, 92); fill-opacity: 1; fill-rule: nonzero; stroke: none; stroke-width: 1.333;" clip-path="url(#clipPath121)"></path>
  <path id="path122" d="M 67.322 174.098 C 67.45 173.452 67.52 172.784 67.52 172.098 C 67.52 166.437 62.932 161.848 57.27 161.848 C 51.609 161.848 47.02 166.437 47.02 172.098 C 47.02 172.784 47.09 173.452 47.218 174.098 L 67.322 174.098 Z" style="fill: rgb(228, 137, 92); fill-opacity: 1; fill-rule: nonzero; stroke: none; stroke-width: 1.333;" clip-path="url(#clipPath123)"></path>
  <path id="path124" d="M 115.751 192.829 C 115.169 200.042 110.043 205.87 103.353 207.942 C 105.183 210.736 108.335 212.582 111.925 212.582 C 117.586 212.582 122.175 207.994 122.175 202.333 C 122.175 198.025 119.515 194.346 115.751 192.829" style="fill: rgb(228, 137, 92); fill-opacity: 1; fill-rule: nonzero; stroke: none; stroke-width: 1.333;" clip-path="url(#clipPath125)"></path>
  <path id="path126" d="M 34.283 221.03 C 36.132 223.704 39.217 225.459 42.715 225.459 C 48.376 225.459 52.965 220.871 52.965 215.21 C 52.965 213.434 52.512 211.763 51.717 210.306 C 44.963 212.27 38.968 216.027 34.283 221.03" style="fill: rgb(228, 137, 92); fill-opacity: 1; fill-rule: nonzero; stroke: none; stroke-width: 1.333;" clip-path="url(#clipPath127)"></path>
  <path id="path128" d="M 30.937 251.598 C 28.457 251.598 26.184 252.48 24.41 253.946 C 25.584 260.572 28.532 266.773 32.833 271.916 C 37.588 271.025 41.186 266.86 41.186 261.848 C 41.186 256.186 36.598 251.598 30.937 251.598" style="fill: rgb(228, 137, 92); fill-opacity: 1; fill-rule: nonzero; stroke: none; stroke-width: 1.333;" clip-path="url(#clipPath129)"></path>
  <path id="path130" d="M 80.27 282.265 C 76.468 282.265 73.157 284.341 71.386 287.416 C 72.917 287.861 74.425 288.478 75.902 289.38 C 80.617 292.25 82.742 296.922 83.822 302.12 C 87.73 300.674 90.52 296.925 90.52 292.514 C 90.52 286.853 85.932 282.265 80.27 282.265" style="fill: rgb(228, 137, 92); fill-opacity: 1; fill-rule: nonzero; stroke: none; stroke-width: 1.333;" clip-path="url(#clipPath131)"></path>
  <path id="path132" d="M 97.428 42.846 C 97.428 41.557 98.472 40.513 99.762 40.513 C 101.05 40.513 102.095 41.557 102.095 42.846 C 102.095 44.134 101.05 45.179 99.762 45.179 C 98.472 45.179 97.428 44.134 97.428 42.846" style="fill: rgb(54, 54, 54); fill-opacity: 1; fill-rule: nonzero; stroke: none; stroke-width: 1.333;" clip-path="url(#clipPath133)"></path>
  <path id="path134" d="M 100.804 38.003 C 101.553 40.14 103.762 43.973 99.634 47.725 C 98.68 48.592 99.804 49.38 100.721 48.473 C 104.945 44.287 102.012 39.211 100.804 38.003" style="fill: rgb(229, 181, 59); fill-opacity: 1; fill-rule: nonzero; stroke: none; stroke-width: 1.333;" clip-path="url(#clipPath135)"></path>
  <path id="path136" d="M 119.049 42.846 C 119.049 41.557 118.004 40.513 116.716 40.513 C 115.428 40.513 114.382 41.557 114.382 42.846 C 114.382 44.134 115.428 45.179 116.716 45.179 C 118.004 45.179 119.049 44.134 119.049 42.846" style="fill: rgb(54, 54, 54); fill-opacity: 1; fill-rule: nonzero; stroke: none; stroke-width: 1.333;" clip-path="url(#clipPath137)"></path>
  <path id="path138" d="M 115.674 38.003 C 114.925 40.14 112.715 43.973 116.843 47.725 C 117.798 48.592 116.674 49.38 115.757 48.473 C 111.533 44.287 114.466 39.211 115.674 38.003" style="fill: rgb(229, 181, 59); fill-opacity: 1; fill-rule: nonzero; stroke: none; stroke-width: 1.333;" clip-path="url(#clipPath139)"></path>
</svg>